PathFileType	4	(X/Y/Z)	./resultDataOpenSim/trcMotMarkerGrf/sub10/qtm-15-02.trc
DataRate	CameraRate	NumFrames	NumMarkers	Units	OrigDataRate	OrigDataStartFrame	OrigNumFrames
250.000000	250.000000	6	24	m	250.000000	294	469
Frame#	Time	L.Toe.Tip			R.Toe.Tip			L.Ankle.Lat			R.Ankle.Lat			L.Ankle.Med			R.Ankle.Med			L.Heel			R.Heel			L.Knee.Lat			R.Knee.Lat			L.Knee.Med			R.Knee.Med			L.Thigh.Upper			R.Thigh.Upper			L.ASIS			R.ASIS			V.Sacral			L.Acromium			R.Acromium			C7			L.Elbow			R.Elbow			L.Wrist.Lat			R.Wrist.Lat
		X1	Y1	Z1	X2	Y2	Z2	X3	Y3	Z3	X4	Y4	Z4	X5	Y5	Z5	X6	Y6	Z6	X7	Y7	Z7	X8	Y8	Z8	X9	Y9	Z9	X10	Y10	Z10	X11	Y11	Z11	X12	Y12	Z12	X13	Y13	Z13	X14	Y14	Z14	X15	Y15	Z15	X16	Y16	Z16	X17	Y17	Z17	X18	Y18	Z18	X19	Y19	Z19	X20	Y20	Z20	X21	Y21	Z21	X22	Y22	Z22	X23	Y23	Z23	X24	Y24	Z24

294	1.172	0.19087834	0.06692346	-0.13972733	0.9202029	0.037968691	0.02801489	0.20866557	0.20371571	-0.17983179	0.77775157	0.05707225	0.063955724	0.24488306	0.19491594	-0.10332092	0.80011155	0.074977061	-0.02312341	0.17798415	0.25735946	-0.12627941	0.72562432	0.032903272	0.020111988	0.55545543	0.33781331	-0.23414695	0.88253485	0.42464955	0.070539521	0.58014969	0.29103407	-0.12229787	0.89488695	0.44168022	-0.057373926	0.58764106	0.70691877	-0.21847835	0.68284475	0.7747168	0.15866114	0.66374669	0.81354821	-0.16717658	0.72448102	0.85387558	0.072096345	0.4974898	0.84566358	-0.010154445	0.68868717	1.3210056	-0.15037244	0.63151972	1.3192876	0.13189501	0.59318941	1.3418763	-0.017683101	0.6444882	1.0773954	-0.39767539	0.43823427	1.0948445	0.30372369	0.8795351	1.0432166	-0.49091719	0.40401184	1.1250096	0.55071556
295	1.176	0.20252772	0.07106033	-0.14236598	0.92024097	0.037948056	0.028139964	0.22070468	0.20764539	-0.18175332	0.77807296	0.056915951	0.063833338	0.25654412	0.19894041	-0.10524693	0.80037039	0.074960815	-0.023085527	0.18988624	0.26153506	-0.12822821	0.72574677	0.033037408	0.019864352	0.56864247	0.33778784	-0.23527715	0.88591157	0.42366892	0.070967614	0.5925077	0.29125462	-0.12295934	0.89658466	0.44076864	-0.056903944	0.59513521	0.70709738	-0.21819296	0.68780062	0.77496165	0.15895336	0.67012785	0.81355882	-0.16679514	0.72944663	0.8541158	0.073261496	0.50315661	0.84599189	-0.010533316	0.6954295	1.320216	-0.15087567	0.63822938	1.3185762	0.13176089	0.59924333	1.3418833	-0.018251874	0.64702855	1.0742921	-0.39509053	0.4484302	1.0904648	0.30261797	0.87931137	1.0343406	-0.49180026	0.41389366	1.1150312	0.55021205
296	1.18	0.2145288	0.074992601	-0.14508167	0.92027429	0.037935451	0.028269609	0.2329218	0.21140618	-0.18372618	0.77849803	0.056710898	0.063655605	0.26858488	0.20274832	-0.10733363	0.80062229	0.074961581	-0.023026812	0.20199786	0.26549063	-0.13036701	0.72587971	0.033173278	0.019603877	0.58182002	0.33794576	-0.23629116	0.88934472	0.42281175	0.071365877	0.60482543	0.291694	-0.12347785	0.89822083	0.43990908	-0.056489123	0.60154928	0.70759402	-0.21798345	0.69271336	0.77529414	0.15918973	0.67644086	0.81385451	-0.16642801	0.73427405	0.85444988	0.074302792	0.50890825	0.84628747	-0.010502094	0.70198152	1.3195999	-0.15145213	0.64482834	1.3179847	0.13159507	0.60522451	1.3419717	-0.018856995	0.64944821	1.0714386	-0.39261194	0.45863599	1.0862454	0.30134307	0.87895638	1.025497	-0.49249871	0.42395956	1.1051334	0.54950459
297	1.184	0.2268838	0.078706667	-0.14788388	0.92029719	0.037924637	0.028397857	0.24524314	0.2150787	-0.18572276	0.77890721	0.056511588	0.063484805	0.28074432	0.20632246	-0.10931735	0.80086554	0.074979223	-0.022949701	0.2142792	0.26912675	-0.13253306	0.72598008	0.033311412	0.019396277	0.59497198	0.33829364	-0.23719424	0.8928637	0.42212879	0.07178843	0.617089	0.29237178	-0.12394293	0.8998606	0.43909756	-0.056096922	0.60757392	0.70816415	-0.21784294	0.69755346	0.77572565	0.15939993	0.68267997	0.81441073	-0.16606482	0.73891899	0.85488578	0.075234153	0.51480197	0.84657284	-0.010025509	0.70836766	1.3191557	-0.15214387	0.65131244	1.3175117	0.13140254	0.61112955	1.3421647	-0.019506459	0.65173186	1.0687851	-0.39003376	0.46883777	1.0821515	0.29992652	0.87851773	1.0168057	-0.49297872	0.43420387	1.0953269	0.54858842
298	1.188	0.23957249	0.082183919	-0.15074168	0.9203053	0.037910412	0.028521512	0.2577169	0.21868157	-0.18779021	0.77917057	0.056365617	0.063395712	0.29280298	0.20969327	-0.11105197	0.8010933	0.075007547	-0.022855751	0.22655005	0.27241823	-0.13448058	0.72603161	0.033445324	0.019261263	0.60811771	0.33884427	-0.23801324	0.89641559	0.42162276	0.072242799	0.62926555	0.29330448	-0.12446187	0.90158789	0.4383184	-0.055665225	0.61362961	0.70869848	-0.21771688	0.70229938	0.77626644	0.15960071	0.68882662	0.81518685	-0.16571314	0.74339493	0.8554375	0.076038242	0.52074701	0.84694291	-0.0093823192	0.7146045	1.3188704	-0.15296268	0.65768111	1.317159	0.13119778	0.61695884	1.3424851	-0.020198546	0.65387559	1.0663051	-0.38727639	0.47902738	1.0781538	0.29840595	0.87800929	1.0083417	-0.49323458	0.44460955	1.0856116	0.54745887
299	1.192	0.25256655	0.085414123	-0.15358892	0.92029603	0.037893896	0.028643985	0.27045862	0.22216258	-0.18999296	0.77926677	0.056271629	0.063407125	0.30476371	0.21290099	-0.11262161	0.80129628	0.075039013	-0.022747858	0.23863805	0.27544538	-0.13615749	0.72604497	0.033564546	0.019174652	0.62127873	0.33960326	-0.23877924	0.89988606	0.42125136	0.07269372	0.64134984	0.29448646	-0.1250602	0.90346696	0.43754793	-0.055149297	0.62001168	0.70920064	-0.21758776	0.70694554	0.77692011	0.15979654	0.69486935	0.81614316	-0.16538395	0.74777277	0.85610762	0.076688513	0.52656182	0.84745492	-0.0089511879	0.72069945	1.3187352	-0.15389588	0.66395096	1.3169347	0.13100235	0.62271866	1.3429472	-0.020929146	0.65593963	1.0639949	-0.38440078	0.48919073	1.0742503	0.29681792	0.87741506	1.0001425	-0.49327758	0.45516458	1.0759853	0.5461101
